<svg id="visual" viewBox="0 0 900 600" width="900" height="600" xmlns="http://www.w3.org/2000/svg" xmlns:xlink="http://www.w3.org/1999/xlink" version="1.1"><rect x="0" y="0" width="900" height="600" fill="#26212b"></rect><defs><linearGradient id="grad1_0" x1="33.3%" y1="100%" x2="100%" y2="0%"><stop offset="20%" stop-color="#3dfcf4" stop-opacity="1"></stop><stop offset="80%" stop-color="#3dfcf4" stop-opacity="1"></stop></linearGradient></defs><defs><linearGradient id="grad1_1" x1="33.3%" y1="100%" x2="100%" y2="0%"><stop offset="20%" stop-color="#3dfcf4" stop-opacity="1"></stop><stop offset="80%" stop-color="#4283a8" stop-opacity="1"></stop></linearGradient></defs><defs><linearGradient id="grad1_2" x1="33.3%" y1="100%" x2="100%" y2="0%"><stop offset="20%" stop-color="#26212b" stop-opacity="1"></stop><stop offset="80%" stop-color="#4283a8" stop-opacity="1"></stop></linearGradient></defs><defs><linearGradient id="grad2_0" x1="0%" y1="100%" x2="66.7%" y2="0%"><stop offset="20%" stop-color="#3dfcf4" stop-opacity="1"></stop><stop offset="80%" stop-color="#3dfcf4" stop-opacity="1"></stop></linearGradient></defs><defs><linearGradient id="grad2_1" x1="0%" y1="100%" x2="66.7%" y2="0%"><stop offset="20%" stop-color="#4283a8" stop-opacity="1"></stop><stop offset="80%" stop-color="#3dfcf4" stop-opacity="1"></stop></linearGradient></defs><defs><linearGradient id="grad2_2" x1="0%" y1="100%" x2="66.7%" y2="0%"><stop offset="20%" stop-color="#4283a8" stop-opacity="1"></stop><stop offset="80%" stop-color="#26212b" stop-opacity="1"></stop></linearGradient></defs><g transform="translate(900, 600)"><path d="M-405.6 0C-368.3 -44.7 -330.9 -89.3 -302.1 -125.1C-273.3 -160.9 -253.2 -187.8 -233.3 -233.3C-213.5 -278.8 -194.1 -342.9 -155.2 -374.7C-116.4 -406.6 -58.2 -406.1 0 -405.6L0 0Z" fill="#424d68"></path><path d="M-270.4 0C-245.5 -29.8 -220.6 -59.6 -201.4 -83.4C-182.2 -107.3 -168.8 -125.2 -155.6 -155.6C-142.4 -185.9 -129.4 -228.6 -103.5 -249.8C-77.6 -271 -38.8 -270.7 0 -270.4L0 0Z" fill="#22bfda"></path><path d="M-135.2 0C-122.8 -14.9 -110.3 -29.8 -100.7 -41.7C-91.1 -53.6 -84.4 -62.6 -77.8 -77.8C-71.2 -92.9 -64.7 -114.3 -51.7 -124.9C-38.8 -135.5 -19.4 -135.4 0 -135.2L0 0Z" fill="#3dfcf4"></path></g><g transform="translate(0, 0)"><path d="M405.6 0C366.6 43.4 327.7 86.7 301.2 124.8C274.7 162.8 260.7 195.5 241.1 241.1C221.5 286.7 196.3 345.2 155.2 374.7C114.1 404.3 57.1 405 0 405.6L0 0Z" fill="#424d68"></path><path d="M270.4 0C244.4 28.9 218.4 57.8 200.8 83.2C183.1 108.5 173.8 130.4 160.7 160.7C147.7 191.1 130.9 230.1 103.5 249.8C76.1 269.5 38 270 0 270.4L0 0Z" fill="#22bfda"></path><path d="M135.2 0C122.2 14.5 109.2 28.9 100.4 41.6C91.6 54.3 86.9 65.2 80.4 80.4C73.8 95.6 65.4 115.1 51.7 124.9C38 134.8 19 135 0 135.2L0 0Z" fill="#3dfcf4"></path></g></svg>