<svg id="visual" viewBox="0 0 900 600" width="900" height="600" xmlns="http://www.w3.org/2000/svg" xmlns:xlink="http://www.w3.org/1999/xlink" version="1.1"><rect width="900" height="600" fill="#001122"></rect><g><g transform="translate(139 503)"><path d="M83.8 -71.1C102.5 -43.4 107.3 -8.9 101.1 25.1C95 59.1 77.9 92.7 48.7 110.2C19.5 127.8 -21.7 129.3 -53.1 113.1C-84.4 96.9 -105.8 63 -111.6 28.2C-117.4 -6.6 -107.5 -42.3 -86.3 -70.5C-65.1 -98.8 -32.6 -119.7 0 -119.7C32.6 -119.7 65.1 -98.8 83.8 -71.1Z" stroke="#F7770F" fill="none" stroke-width="20"></path></g><g transform="translate(277 105)"><path d="M39.3 -30.4C48.6 -19.7 52.1 -3.5 48.2 10C44.3 23.4 33 34.2 20.2 39.4C7.4 44.6 -6.9 44.2 -19.6 38.8C-32.4 33.4 -43.6 23 -46.5 10.6C-49.3 -1.9 -43.8 -16.2 -34.7 -26.9C-25.6 -37.6 -12.8 -44.7 1.1 -45.6C15 -46.5 30 -41.2 39.3 -30.4Z" stroke="#F7770F" fill="none" stroke-width="20"></path></g><g transform="translate(524 362)"><path d="M57.3 -45.4C70.8 -28.8 75.8 -5.2 71 16.2C66.1 37.6 51.3 56.7 31.7 66.4C12 76 -12.4 76.3 -32.6 66.9C-52.8 57.5 -68.8 38.4 -73.9 16.6C-79.1 -5.1 -73.4 -29.6 -59.3 -46.3C-45.2 -63 -22.6 -72 -0.3 -71.7C21.9 -71.4 43.8 -61.9 57.3 -45.4Z" stroke="#F7770F" fill="none" stroke-width="20"></path></g></g></svg>