<svg id="visual" viewBox="0 0 900 600" width="900" height="600" xmlns="http://www.w3.org/2000/svg" xmlns:xlink="http://www.w3.org/1999/xlink" version="1.1"><rect x="0" y="0" width="900" height="600" fill="#001220"></rect><defs><linearGradient id="grad1_0" x1="33.3%" y1="100%" x2="100%" y2="0%"><stop offset="20%" stop-color="#fbae3c" stop-opacity="1"></stop><stop offset="80%" stop-color="#fbae3c" stop-opacity="1"></stop></linearGradient></defs><defs><linearGradient id="grad1_1" x1="33.3%" y1="100%" x2="100%" y2="0%"><stop offset="20%" stop-color="#fbae3c" stop-opacity="1"></stop><stop offset="80%" stop-color="#96446e" stop-opacity="1"></stop></linearGradient></defs><defs><linearGradient id="grad1_2" x1="33.3%" y1="100%" x2="100%" y2="0%"><stop offset="20%" stop-color="#001220" stop-opacity="1"></stop><stop offset="80%" stop-color="#96446e" stop-opacity="1"></stop></linearGradient></defs><defs><linearGradient id="grad2_0" x1="0%" y1="100%" x2="66.7%" y2="0%"><stop offset="20%" stop-color="#fbae3c" stop-opacity="1"></stop><stop offset="80%" stop-color="#fbae3c" stop-opacity="1"></stop></linearGradient></defs><defs><linearGradient id="grad2_1" x1="0%" y1="100%" x2="66.7%" y2="0%"><stop offset="20%" stop-color="#96446e" stop-opacity="1"></stop><stop offset="80%" stop-color="#fbae3c" stop-opacity="1"></stop></linearGradient></defs><defs><linearGradient id="grad2_2" x1="0%" y1="100%" x2="66.7%" y2="0%"><stop offset="20%" stop-color="#96446e" stop-opacity="1"></stop><stop offset="80%" stop-color="#001220" stop-opacity="1"></stop></linearGradient></defs><g transform="translate(900, 600)"><path d="M-405.6 0C-391.7 -51.9 -377.8 -103.8 -353.8 -146.6C-329.9 -189.3 -295.8 -222.9 -263 -263C-230.3 -303.2 -198.8 -349.9 -155.2 -374.7C-111.6 -399.6 -55.8 -402.6 0 -405.6L0 0Z" fill="#3d3056"></path><path d="M-270.4 0C-261.2 -34.6 -251.9 -69.2 -235.9 -97.7C-219.9 -126.2 -197.2 -148.6 -175.4 -175.4C-153.5 -202.1 -132.6 -233.3 -103.5 -249.8C-74.4 -266.4 -37.2 -268.4 0 -270.4L0 0Z" fill="#e1685e"></path><path d="M-135.2 0C-130.6 -17.3 -125.9 -34.6 -117.9 -48.9C-110 -63.1 -98.6 -74.3 -87.7 -87.7C-76.8 -101.1 -66.3 -116.6 -51.7 -124.9C-37.2 -133.2 -18.6 -134.2 0 -135.2L0 0Z" fill="#fbae3c"></path></g><g transform="translate(0, 0)"><path d="M405.6 0C389.2 48.7 372.8 97.4 355.7 147.3C338.6 197.3 320.7 248.4 286.8 286.8C253 325.2 203.2 350.9 152.7 368.6C102.2 386.3 51.1 396 0 405.6L0 0Z" fill="#3d3056"></path><path d="M270.4 0C259.5 32.5 248.6 64.9 237.1 98.2C225.7 131.5 213.8 165.6 191.2 191.2C168.6 216.8 135.4 234 101.8 245.8C68.2 257.5 34.1 264 0 270.4L0 0Z" fill="#e1685e"></path><path d="M135.2 0C129.7 16.2 124.3 32.5 118.6 49.1C112.9 65.8 106.9 82.8 95.6 95.6C84.3 108.4 67.7 117 50.9 122.9C34.1 128.8 17 132 0 135.2L0 0Z" fill="#fbae3c"></path></g></svg>