<svg id="visual" viewBox="0 0 450 900" width="450" height="900" xmlns="http://www.w3.org/2000/svg" xmlns:xlink="http://www.w3.org/1999/xlink" version="1.1"><rect x="0" y="0" width="450" height="900" fill="#001220"></rect><defs><linearGradient id="grad1_0" x1="0%" y1="100%" x2="100%" y2="0%"><stop offset="30%" stop-color="#fbae3c" stop-opacity="1"></stop><stop offset="70%" stop-color="#fbae3c" stop-opacity="1"></stop></linearGradient></defs><defs><linearGradient id="grad1_1" x1="0%" y1="100%" x2="100%" y2="0%"><stop offset="30%" stop-color="#fbae3c" stop-opacity="1"></stop><stop offset="70%" stop-color="#96446e" stop-opacity="1"></stop></linearGradient></defs><defs><linearGradient id="grad1_2" x1="0%" y1="100%" x2="100%" y2="0%"><stop offset="30%" stop-color="#001220" stop-opacity="1"></stop><stop offset="70%" stop-color="#96446e" stop-opacity="1"></stop></linearGradient></defs><defs><linearGradient id="grad2_0" x1="0%" y1="100%" x2="100%" y2="0%"><stop offset="30%" stop-color="#fbae3c" stop-opacity="1"></stop><stop offset="70%" stop-color="#fbae3c" stop-opacity="1"></stop></linearGradient></defs><defs><linearGradient id="grad2_1" x1="0%" y1="100%" x2="100%" y2="0%"><stop offset="30%" stop-color="#96446e" stop-opacity="1"></stop><stop offset="70%" stop-color="#fbae3c" stop-opacity="1"></stop></linearGradient></defs><defs><linearGradient id="grad2_2" x1="0%" y1="100%" x2="100%" y2="0%"><stop offset="30%" stop-color="#96446e" stop-opacity="1"></stop><stop offset="70%" stop-color="#001220" stop-opacity="1"></stop></linearGradient></defs><g transform="translate(450, 900)"><path d="M-315 0C-302.2 -37.5 -289.3 -75.1 -276.2 -114.4C-263.2 -153.8 -249.9 -194.9 -222.7 -222.7C-195.6 -250.5 -154.6 -264.9 -115.2 -278.1C-75.8 -291.2 -37.9 -303.1 0 -315L0 0Z" fill="#3d3056"></path><path d="M-210 0C-201.4 -25 -192.9 -50 -184.2 -76.3C-175.4 -102.5 -166.6 -130 -148.5 -148.5C-130.4 -167 -103.1 -176.6 -76.8 -185.4C-50.5 -194.2 -25.3 -202.1 0 -210L0 0Z" fill="#e1685e"></path><path d="M-105 0C-100.7 -12.5 -96.4 -25 -92.1 -38.1C-87.7 -51.3 -83.3 -65 -74.2 -74.2C-65.2 -83.5 -51.5 -88.3 -38.4 -92.7C-25.3 -97.1 -12.6 -101 0 -105L0 0Z" fill="#fbae3c"></path></g><g transform="translate(0, 0)"><path d="M315 0C303.8 40 292.6 80 274.4 113.7C256.2 147.3 231.1 174.6 205.8 205.8C180.4 237 154.9 272.2 120.5 291C86.2 309.9 43.1 312.4 0 315L0 0Z" fill="#3d3056"></path><path d="M210 0C202.5 26.7 195 53.3 182.9 75.8C170.8 98.2 154.1 116.4 137.2 137.2C120.3 158 103.3 181.4 80.4 194C57.5 206.6 28.7 208.3 0 210L0 0Z" fill="#e1685e"></path><path d="M105 0C101.3 13.3 97.5 26.7 91.5 37.9C85.4 49.1 77 58.2 68.6 68.6C60.1 79 51.6 90.7 40.2 97C28.7 103.3 14.4 104.1 0 105L0 0Z" fill="#fbae3c"></path></g></svg>