<svg id="visual" viewBox="0 0 900 600" width="900" height="600" xmlns="http://www.w3.org/2000/svg" xmlns:xlink="http://www.w3.org/1999/xlink" version="1.1"><rect width="900" height="600" fill="#001122"></rect><g><g transform="translate(383 211)"><path d="M50.6 -41.1C62.6 -25.4 67.2 -4.5 63.3 15.2C59.4 34.8 47 53.2 28.9 63.1C10.8 73 -12.8 74.4 -33.4 65.9C-54 57.3 -71.5 38.8 -74.7 18.8C-77.9 -1.3 -66.8 -22.9 -52 -39.2C-37.2 -55.6 -18.6 -66.7 0.4 -67C19.3 -67.3 38.6 -56.8 50.6 -41.1Z" stroke="#decfcf" fill="none" stroke-width="20"></path></g><g transform="translate(3 170)"><path d="M44.6 -35C54.4 -23.3 56.5 -5 52.1 11C47.8 26.9 36.9 40.5 23.1 46.6C9.3 52.7 -7.4 51.4 -20.2 44.3C-33 37.2 -42 24.4 -45.8 9.8C-49.7 -4.8 -48.5 -21.3 -40 -32.6C-31.5 -44 -15.8 -50.3 0.8 -50.9C17.4 -51.6 34.8 -46.6 44.6 -35Z" stroke="#decfcf" fill="none" stroke-width="20"></path></g><g transform="translate(895 7)"><path d="M47.1 -35.5C59.2 -22.4 65.8 -2.9 61.6 13.4C57.3 29.8 42.2 43.1 24.7 51.6C7.2 60.1 -12.7 64 -28 57C-43.2 50.1 -53.7 32.4 -55.8 15.1C-58 -2.2 -51.6 -19.2 -40.9 -31.9C-30.2 -44.7 -15.1 -53.3 1.2 -54.3C17.5 -55.2 35 -48.5 47.1 -35.5Z" stroke="#decfcf" fill="none" stroke-width="20"></path></g><g transform="translate(808 504)"><path d="M55.8 -44.8C68.3 -28.9 71.5 -5.9 66.1 13.9C60.7 33.8 46.5 50.5 28.9 58.4C11.2 66.3 -9.9 65.4 -28.9 57.3C-47.9 49.2 -64.8 33.9 -69.4 15.4C-73.9 -3.1 -66.2 -24.9 -52.6 -41.1C-39 -57.3 -19.5 -68 1.1 -68.9C21.7 -69.7 43.3 -60.8 55.8 -44.8Z" stroke="#decfcf" fill="none" stroke-width="20"></path></g><g transform="translate(199 454)"><path d="M50.5 -40.1C63.2 -24.3 69.7 -3.5 65.6 15.1C61.5 33.7 46.7 50 28.2 59.3C9.6 68.6 -12.8 70.8 -29.7 62.4C-46.7 54 -58.3 35 -61 15.9C-63.8 -3.1 -57.7 -22.1 -46 -37.6C-34.4 -53.1 -17.2 -65.1 0.9 -65.7C18.9 -66.4 37.8 -55.8 50.5 -40.1Z" stroke="#decfcf" fill="none" stroke-width="20"></path></g></g></svg>