<svg id="visual" viewBox="0 0 900 600" width="900" height="600" xmlns="http://www.w3.org/2000/svg" xmlns:xlink="http://www.w3.org/1999/xlink" version="1.1"><rect x="0" y="0" width="900" height="600" fill="#001220"></rect><path d="M0 293L18.8 295C37.7 297 75.3 301 112.8 313.2C150.3 325.3 187.7 345.7 225.2 357.5C262.7 369.3 300.3 372.7 337.8 368.8C375.3 365 412.7 354 450.2 349.7C487.7 345.3 525.3 347.7 562.8 347.5C600.3 347.3 637.7 344.7 675.2 348.5C712.7 352.3 750.3 362.7 787.8 357.7C825.3 352.7 862.7 332.3 881.3 322.2L900 312L900 601L881.3 601C862.7 601 825.3 601 787.8 601C750.3 601 712.7 601 675.2 601C637.7 601 600.3 601 562.8 601C525.3 601 487.7 601 450.2 601C412.7 601 375.3 601 337.8 601C300.3 601 262.7 601 225.2 601C187.7 601 150.3 601 112.8 601C75.3 601 37.7 601 18.8 601L0 601Z" fill="#ea882f"></path><path d="M0 380L18.8 385.2C37.7 390.3 75.3 400.7 112.8 410.8C150.3 421 187.7 431 225.2 436.8C262.7 442.7 300.3 444.3 337.8 440.3C375.3 436.3 412.7 426.7 450.2 425.7C487.7 424.7 525.3 432.3 562.8 435.5C600.3 438.7 637.7 437.3 675.2 424.3C712.7 411.3 750.3 386.7 787.8 382.5C825.3 378.3 862.7 394.7 881.3 402.8L900 411L900 601L881.3 601C862.7 601 825.3 601 787.8 601C750.3 601 712.7 601 675.2 601C637.7 601 600.3 601 562.8 601C525.3 601 487.7 601 450.2 601C412.7 601 375.3 601 337.8 601C300.3 601 262.7 601 225.2 601C187.7 601 150.3 601 112.8 601C75.3 601 37.7 601 18.8 601L0 601Z" fill="#db692a"></path><path d="M0 435L18.8 436C37.7 437 75.3 439 112.8 445.5C150.3 452 187.7 463 225.2 461.7C262.7 460.3 300.3 446.7 337.8 442.2C375.3 437.7 412.7 442.3 450.2 452.2C487.7 462 525.3 477 562.8 484.3C600.3 491.7 637.7 491.3 675.2 484.3C712.7 477.3 750.3 463.7 787.8 453.7C825.3 443.7 862.7 437.3 881.3 434.2L900 431L900 601L881.3 601C862.7 601 825.3 601 787.8 601C750.3 601 712.7 601 675.2 601C637.7 601 600.3 601 562.8 601C525.3 601 487.7 601 450.2 601C412.7 601 375.3 601 337.8 601C300.3 601 262.7 601 225.2 601C187.7 601 150.3 601 112.8 601C75.3 601 37.7 601 18.8 601L0 601Z" fill="#ca4a28"></path><path d="M0 496L18.8 502.2C37.7 508.3 75.3 520.7 112.8 525.5C150.3 530.3 187.7 527.7 225.2 529.5C262.7 531.3 300.3 537.7 337.8 534.3C375.3 531 412.7 518 450.2 511C487.7 504 525.3 503 562.8 503.5C600.3 504 637.7 506 675.2 515.3C712.7 524.7 750.3 541.3 787.8 539.5C825.3 537.7 862.7 517.3 881.3 507.2L900 497L900 601L881.3 601C862.7 601 825.3 601 787.8 601C750.3 601 712.7 601 675.2 601C637.7 601 600.3 601 562.8 601C525.3 601 487.7 601 450.2 601C412.7 601 375.3 601 337.8 601C300.3 601 262.7 601 225.2 601C187.7 601 150.3 601 112.8 601C75.3 601 37.7 601 18.8 601L0 601Z" fill="#b72828"></path></svg>