<svg id="visual" viewBox="0 0 900 600" width="900" height="600" xmlns="http://www.w3.org/2000/svg" xmlns:xlink="http://www.w3.org/1999/xlink" version="1.1"><rect x="0" y="0" width="900" height="600" fill="#001220"></rect><path d="M0 474L18.8 477.2C37.7 480.3 75.3 486.7 112.8 469.3C150.3 452 187.7 411 225.2 410.7C262.7 410.3 300.3 450.7 337.8 457.3C375.3 464 412.7 437 450.2 413.8C487.7 390.7 525.3 371.3 562.8 378.7C600.3 386 637.7 420 675.2 438.2C712.7 456.3 750.3 458.7 787.8 445.7C825.3 432.7 862.7 404.3 881.3 390.2L900 376L900 0L881.3 0C862.7 0 825.3 0 787.8 0C750.3 0 712.7 0 675.2 0C637.7 0 600.3 0 562.8 0C525.3 0 487.7 0 450.2 0C412.7 0 375.3 0 337.8 0C300.3 0 262.7 0 225.2 0C187.7 0 150.3 0 112.8 0C75.3 0 37.7 0 18.8 0L0 0Z" fill="#ea882f"></path><path d="M0 311L18.8 316.7C37.7 322.3 75.3 333.7 112.8 329.5C150.3 325.3 187.7 305.7 225.2 295.3C262.7 285 300.3 284 337.8 283.8C375.3 283.7 412.7 284.3 450.2 280C487.7 275.7 525.3 266.3 562.8 276.7C600.3 287 637.7 317 675.2 330.2C712.7 343.3 750.3 339.7 787.8 327.7C825.3 315.7 862.7 295.3 881.3 285.2L900 275L900 0L881.3 0C862.7 0 825.3 0 787.8 0C750.3 0 712.7 0 675.2 0C637.7 0 600.3 0 562.8 0C525.3 0 487.7 0 450.2 0C412.7 0 375.3 0 337.8 0C300.3 0 262.7 0 225.2 0C187.7 0 150.3 0 112.8 0C75.3 0 37.7 0 18.8 0L0 0Z" fill="#db692a"></path><path d="M0 195L18.8 192C37.7 189 75.3 183 112.8 190.2C150.3 197.3 187.7 217.7 225.2 230.2C262.7 242.7 300.3 247.3 337.8 251.3C375.3 255.3 412.7 258.7 450.2 261.8C487.7 265 525.3 268 562.8 256.5C600.3 245 637.7 219 675.2 206.3C712.7 193.7 750.3 194.3 787.8 194.3C825.3 194.3 862.7 193.7 881.3 193.3L900 193L900 0L881.3 0C862.7 0 825.3 0 787.8 0C750.3 0 712.7 0 675.2 0C637.7 0 600.3 0 562.8 0C525.3 0 487.7 0 450.2 0C412.7 0 375.3 0 337.8 0C300.3 0 262.7 0 225.2 0C187.7 0 150.3 0 112.8 0C75.3 0 37.7 0 18.8 0L0 0Z" fill="#ca4a28"></path><path d="M0 111L18.8 120C37.7 129 75.3 147 112.8 149.5C150.3 152 187.7 139 225.2 127.8C262.7 116.7 300.3 107.3 337.8 105C375.3 102.7 412.7 107.3 450.2 106.5C487.7 105.7 525.3 99.3 562.8 102.3C600.3 105.3 637.7 117.7 675.2 121.3C712.7 125 750.3 120 787.8 121.5C825.3 123 862.7 131 881.3 135L900 139L900 0L881.3 0C862.7 0 825.3 0 787.8 0C750.3 0 712.7 0 675.2 0C637.7 0 600.3 0 562.8 0C525.3 0 487.7 0 450.2 0C412.7 0 375.3 0 337.8 0C300.3 0 262.7 0 225.2 0C187.7 0 150.3 0 112.8 0C75.3 0 37.7 0 18.8 0L0 0Z" fill="#b72828"></path></svg>