<svg id="visual" viewBox="0 0 450 900" width="450" height="900" xmlns="http://www.w3.org/2000/svg" xmlns:xlink="http://www.w3.org/1999/xlink" version="1.1"><rect x="0" y="0" width="450" height="900" fill="#001220"></rect><defs><linearGradient id="grad1_0" x1="0%" y1="100%" x2="100%" y2="0%"><stop offset="30%" stop-color="#fbae3c" stop-opacity="1"></stop><stop offset="70%" stop-color="#fbae3c" stop-opacity="1"></stop></linearGradient></defs><defs><linearGradient id="grad1_1" x1="0%" y1="100%" x2="100%" y2="0%"><stop offset="30%" stop-color="#fbae3c" stop-opacity="1"></stop><stop offset="70%" stop-color="#96446e" stop-opacity="1"></stop></linearGradient></defs><defs><linearGradient id="grad1_2" x1="0%" y1="100%" x2="100%" y2="0%"><stop offset="30%" stop-color="#001220" stop-opacity="1"></stop><stop offset="70%" stop-color="#96446e" stop-opacity="1"></stop></linearGradient></defs><defs><linearGradient id="grad2_0" x1="0%" y1="100%" x2="100%" y2="0%"><stop offset="30%" stop-color="#fbae3c" stop-opacity="1"></stop><stop offset="70%" stop-color="#fbae3c" stop-opacity="1"></stop></linearGradient></defs><defs><linearGradient id="grad2_1" x1="0%" y1="100%" x2="100%" y2="0%"><stop offset="30%" stop-color="#96446e" stop-opacity="1"></stop><stop offset="70%" stop-color="#fbae3c" stop-opacity="1"></stop></linearGradient></defs><defs><linearGradient id="grad2_2" x1="0%" y1="100%" x2="100%" y2="0%"><stop offset="30%" stop-color="#96446e" stop-opacity="1"></stop><stop offset="70%" stop-color="#001220" stop-opacity="1"></stop></linearGradient></defs><g transform="translate(450, 900)"><path d="M-337.5 0C-333.7 -45.3 -330 -90.7 -311.8 -129.2C-293.6 -167.6 -261 -199.2 -228.4 -228.4C-195.8 -257.6 -163.2 -284.3 -125.1 -302.1C-87.1 -319.9 -43.5 -328.7 0 -337.5L0 0Z" fill="#3d3056"></path><path d="M-225 0C-222.5 -30.2 -220 -60.5 -207.9 -86.1C-195.7 -111.7 -174 -132.8 -152.3 -152.3C-130.5 -171.7 -108.8 -189.6 -83.4 -201.4C-58 -213.3 -29 -219.1 0 -225L0 0Z" fill="#e1685e"></path><path d="M-112.5 0C-111.2 -15.1 -110 -30.2 -103.9 -43.1C-97.9 -55.9 -87 -66.4 -76.1 -76.1C-65.3 -85.9 -54.4 -94.8 -41.7 -100.7C-29 -106.6 -14.5 -109.6 0 -112.5L0 0Z" fill="#fbae3c"></path></g><g transform="translate(0, 0)"><path d="M337.5 0C333.1 44.4 328.8 88.8 311.8 129.2C294.9 169.5 265.4 205.7 231.2 231.2C197.1 256.7 158.3 271.4 119 287.3C79.7 303.2 39.9 320.4 0 337.5L0 0Z" fill="#3d3056"></path><path d="M225 0C222.1 29.6 219.2 59.2 207.9 86.1C196.6 113 176.9 137.2 154.1 154.1C131.4 171.1 105.5 180.9 79.3 191.6C53.1 202.2 26.6 213.6 0 225L0 0Z" fill="#e1685e"></path><path d="M112.5 0C111 14.8 109.6 29.6 103.9 43.1C98.3 56.5 88.5 68.6 77.1 77.1C65.7 85.6 52.8 90.5 39.7 95.8C26.6 101.1 13.3 106.8 0 112.5L0 0Z" fill="#fbae3c"></path></g></svg>