<svg id="visual" viewBox="0 0 900 600" width="900" height="600" xmlns="http://www.w3.org/2000/svg" xmlns:xlink="http://www.w3.org/1999/xlink" version="1.1"><rect x="0" y="0" width="900" height="600" fill="#001122"></rect><path d="M0 303L25 312.3C50 321.7 100 340.3 150 316.7C200 293 250 227 300 212.3C350 197.7 400 234.3 450 229.8C500 225.3 550 179.7 600 188.2C650 196.7 700 259.3 750 270.2C800 281 850 240 875 219.5L900 199L900 0L875 0C850 0 800 0 750 0C700 0 650 0 600 0C550 0 500 0 450 0C400 0 350 0 300 0C250 0 200 0 150 0C100 0 50 0 25 0L0 0Z" fill="#6600FF" stroke-linecap="round" stroke-linejoin="miter"></path></svg>